# xmcd
#
# Track frame offsets: 
#        150
#        16690
#        31812
#        45784
#        64753
#        85025
#        103314
#        113013
#        131157
#        155204
#        180704
#        200988
#        220057
#        235359
#        253147
#        269696
#        287680
#        307433
#
# Disc length: 4368 seconds
#
# Revision: 4
# Processed by: cddbd v1.5.2PL0 Copyright (c) Steve Scherf et al.
# Submitted via: ExactAudioCopyFreeDBPlugin 1.0
#
DISCID=0f110e12
DTITLE=Various Artist - New Jazz Generation CD1
DYEAR=2004
DGENRE=Jazz
TTITLE0=Joss Stone - Fell In Love With a Boy
TTITLE1=Jamie Cullum - Everlasting Love
TTITLE2=Norah Jones - Dont Know Why
TTITLE3=Katie Melua - The Closest Thing To Crazy
TTITLE4=Diana Krall - Lets Fall In Love
TTITLE5=Eva Cassidy - Cheek To Cheek
TTITLE6=Amy Winehouse - (There Is) No Greater Love
TTITLE7=Gwyneth Herbert - Fever
TTITLE8=Young Disciples - Apparently Nothin
TTITLE9=Groove Armada - Dusk You and Me
TTITLE10=US3 - Cantaloop (Flip Fantasia)
TTITLE11=Peter Cincotti - St Louis Blues
TTITLE12=Matt Dusk - Please Please Me
TTITLE13=Madeleine Peyroux - Dance Me To The End Of Love
TTITLE14=Minnnie Driver - Everything I've Got In My Pocket
TTITLE15=Incognito - Don't You Worry Bout A Thing
TTITLE16=Lizz Wright - Lead The Way
TTITLE17=Soweto Kinch - Jazz Planet
EXTD=YEAR: 2004
EXTT0=
EXTT1=
EXTT2=
EXTT3=
EXTT4=
EXTT5=
EXTT6=
EXTT7=
EXTT8=
EXTT9=
EXTT10=
EXTT11=
EXTT12=
EXTT13=
EXTT14=
EXTT15=
EXTT16=
EXTT17=
PLAYORDER=
